<svg xmlns="http://www.w3.org/2000/svg" width="133" height="54" viewBox="0 0 133 54">
  <path fill="#001A3E" d="M17.1087591,53.6452555 C17.0708029,53.6846715 16.9948905,53.7240876 16.9569343,53.7635036 L12.7058394,53.7635036 C12.629927,53.7635036 12.5919708,53.7240876 12.5540146,53.6846715 L0.0284671533,39.0613139 C-0.00948905109,38.9824818 -0.00948905109,38.9036496 0.0284671533,38.8248175 L15.6284672,10.9970803 C15.7043796,10.8788321 15.8941606,10.8788321 15.970073,10.9970803 L20.3350365,18.8014599 C20.3729927,18.8408759 20.3729927,18.919708 20.3350365,18.9985401 L9.78321168,37.8 C9.74525547,37.8788321 9.78321168,37.9576642 9.82116788,38.0364964 L16.1218978,45.3678832 C16.159854,45.4072993 16.2357664,45.4467153 16.2737226,45.4467153 L23.7131387,45.4467153 C23.9029197,45.4467153 23.9788321,45.6437956 23.8649635,45.7620438 L17.1087591,53.6452555 Z M21.7394161,0.118248175 C21.8153285,-0.0394160584 22.0051095,-0.0394160584 22.0430657,0.118248175 L43.7919708,38.7459854 C43.829927,38.8248175 43.7919708,38.9036496 43.7540146,38.9824818 L31.2284672,53.6058394 C31.1905109,53.6452555 31.1145985,53.6846715 31.0766423,53.6846715 L20.9043796,53.6846715 C20.7145985,53.6846715 20.6386861,53.4875912 20.7525547,53.3693431 L27.5467153,45.4072993 L33.9233577,37.9970803 C33.9992701,37.9182482 33.9992701,37.8394161 33.9613139,37.7605839 L21.8912409,16.2394161 L17.3364964,8.11970803 C17.2985401,8.08029197 17.2985401,8.00145985 17.3364964,7.92262774 L21.7394161,0.118248175 Z M62.5423358,42.7664234 C62.5423358,42.8846715 62.6562044,42.9635036 62.7321168,42.9635036 L73.5875912,42.9635036 C73.7014599,42.9635036 73.7773723,43.0423358 73.7773723,43.1605839 L73.7773723,50.8467153 C73.7773723,50.9649635 73.7014599,51.0437956 73.5875912,51.0437956 L62.5423358,51.0437956 L54.9890511,51.0437956 C54.8751825,51.0437956 54.7992701,50.9649635 54.7992701,50.8467153 L54.7992701,26.2510949 C54.7992701,26.2116788 54.7992701,26.1722628 54.8372263,26.1328467 L62.2007299,17.579562 C62.3145985,17.4218978 62.5423358,17.5007299 62.5423358,17.6978102 L62.5423358,42.7664234 Z M84.4810219,50.8467153 C84.4810219,50.9255474 84.4051095,51.0437956 84.2912409,51.0437956 L76.9277372,51.0437956 C76.8138686,51.0437956 76.7379562,50.9649635 76.7379562,50.8467153 L76.7379562,35.9080292 C76.7379562,35.8686131 76.7379562,35.8291971 76.7759124,35.789781 L84.1394161,27.2364964 C84.2532847,27.0788321 84.4810219,27.1576642 84.4810219,27.3547445 L84.4810219,50.8467153 Z M124.335036,39.0613139 L132.229927,50.7284672 C132.305839,50.8467153 132.229927,51.0437956 132.078102,51.0437956 L123.879562,51.0437956 C123.841606,51.0437956 123.765693,51.0043796 123.727737,50.9649635 L117.540876,41.3080292 C117.427007,41.150365 117.19927,41.2291971 117.19927,41.4262774 L117.19927,42.9635036 L117.19927,50.8467153 C117.19927,50.9649635 117.123358,51.0437956 117.009489,51.0437956 L109.645985,51.0437956 C109.532117,51.0437956 109.456204,50.9649635 109.456204,50.8467153 L109.456204,26.2116788 C109.456204,26.1722628 109.456204,26.1328467 109.494161,26.0934307 L116.857664,17.540146 C116.971533,17.3824818 117.19927,17.4613139 117.19927,17.6583942 L117.19927,36.1839416 C117.19927,36.3810219 117.427007,36.459854 117.540876,36.3021898 L123.120438,26.9211679 C123.158394,26.8817518 123.19635,26.8423358 123.272263,26.8423358 L131.736496,26.8423358 C131.888321,26.8423358 131.964234,27.0394161 131.888321,27.1576642 L124.335036,38.8248175 C124.29708,38.9036496 124.29708,38.9824818 124.335036,39.0613139 Z M96.9686131,51.5167883 C91.9583942,51.5167883 88.6562044,49.7824818 86.9481752,46.1956204 C86.8722628,46.0773723 86.910219,45.9591241 87.0240876,45.919708 L93.0591241,42.7664234 C93.1729927,42.7270073 93.2868613,42.7664234 93.3248175,42.8846715 C93.970073,44.4613139 95.2226277,45.249635 96.9686131,45.249635 C98.8664234,45.249635 99.2459854,44.4218978 99.2459854,43.7518248 C99.2459854,42.7270073 97.8416058,42.3328467 95.8678832,41.820438 C92.489781,40.9138686 87.8591241,39.6919708 87.8591241,34.2919708 C87.8591241,30.350365 90.7058394,26.3693431 96.9686131,26.4087591 C101.29562,26.4087591 104.408029,28.1430657 106.191971,31.5328467 C106.267883,31.6510949 106.229927,31.7693431 106.116058,31.8087591 L100.270803,34.5284672 C100.194891,34.5678832 100.081022,34.5284672 100.043066,34.449635 C99.359854,33.2277372 98.3729927,32.5970803 97.1583942,32.5970803 C95.9817518,32.5970803 95.2605839,33.1094891 95.2605839,33.9372263 C95.2605839,35.0014599 96.7788321,35.3562044 98.6766423,35.8291971 C102.130657,36.6569343 106.837226,37.7605839 106.837226,43.5941606 C106.837226,49.4277372 101.751095,51.5167883 96.9686131,51.5167883 Z"/>
</svg>
